<mxfile host="65bd71144e">
    <diagram id="f1oL-Dg3GfGqxymau8xR" name="PÃ¡gina-1">
        <mxGraphModel dx="876" dy="500" grid="0" gridSize="10" guides="1" tooltips="1" connect="1" arrows="1" fold="1" page="1" pageScale="1" pageWidth="1169" pageHeight="827" background="#ffffff" math="0" shadow="0">
            <root>
                <mxCell id="0"/>
                <mxCell id="1" parent="0"/>
                <mxCell id="56" value="Menu do Usuario" style="rounded=0;whiteSpace=wrap;html=1;shadow=0;sketch=0;hachureGap=4;jiggle=2;curveFitting=1;fontFamily=Times New Roman;fontSize=12;fillColor=#0050ef;fontColor=#ffffff;strokeColor=#001DBC;" vertex="1" parent="1">
                    <mxGeometry x="35" y="193" width="120" height="60" as="geometry"/>
                </mxCell>
            </root>
        </mxGraphModel>
    </diagram>
</mxfile>